<?xml version="1.0" encoding="UTF-8"?>
<svg xmlns="http://www.w3.org/2000/svg" xmlns:xlink="http://www.w3.org/1999/xlink" width="1024px" height="318px" viewBox="0 0 1024 318" version="1.1">
<g id="surface1">
<path style=" stroke:none;fill-rule:nonzero;fill:rgb(0%,0%,0%);fill-opacity:1;" d="M 918.125 148.871094 L 918.207031 245.539062 L 924.136719 245.539062 C 927.394531 245.539062 936.496094 245.511719 944.332031 245.457031 L 958.621094 245.402344 L 958.539062 148.839844 L 958.484375 52.308594 L 938.261719 52.253906 L 918.070312 52.171875 Z M 918.125 148.871094 "/>
<path style=" stroke:none;fill-rule:nonzero;fill:rgb(0%,0%,0%);fill-opacity:1;" d="M 71.503906 152.871094 L 71.585938 245.539062 L 106.34375 245.566406 C 149.902344 245.59375 159.089844 245.429688 164.9375 244.433594 C 169.820312 243.632812 177.1875 241.894531 180.964844 240.679688 C 183.945312 239.714844 191.503906 236.539062 195.0625 234.746094 C 201.847656 231.351562 209.65625 226.023438 215.007812 221.136719 C 222.152344 214.621094 228.828125 206.175781 233.101562 198.335938 C 233.765625 197.121094 234.511719 195.824219 234.757812 195.4375 C 235.007812 195.050781 235.53125 193.945312 235.917969 192.953125 C 236.304688 191.960938 237.296875 189.476562 238.125 187.433594 C 242.757812 175.949219 245.242188 159 244.164062 146.164062 C 243.421875 137.46875 240.414062 123.75 237.902344 117.871094 C 237.378906 116.574219 236.773438 115.082031 236.550781 114.558594 C 234.953125 110.222656 230.316406 102.21875 226.648438 97.441406 C 224.523438 94.683594 224.164062 94.242188 220.578125 90.320312 C 216.773438 86.125 213.683594 83.335938 208.441406 79.363281 C 203.0625 75.304688 201.433594 74.253906 196.136719 71.632812 C 183.835938 65.476562 177.957031 63.65625 161.792969 61.144531 C 161.351562 61.058594 158.371094 60.8125 155.171875 60.589844 C 150.398438 60.261719 142.59375 60.175781 110.398438 60.175781 L 71.421875 60.175781 Z M 156.25 96.726562 C 163.394531 98.132812 170.511719 100.699219 176.164062 103.957031 C 178.730469 105.421875 182.757812 108.621094 185.515625 111.382812 C 192.496094 118.421875 196.9375 126.125 199.835938 136.171875 C 202.316406 144.757812 202.648438 156.488281 200.691406 165.984375 C 197.542969 181.027344 189.765625 192.816406 177.765625 200.683594 C 173.074219 203.746094 164.605469 207.140625 158.484375 208.410156 C 153.820312 209.378906 150.34375 209.515625 131.945312 209.515625 L 113.929688 209.515625 L 113.929688 96.035156 L 133.875 96.144531 C 151.476562 96.226562 154.070312 96.285156 156.25 96.726562 Z M 156.25 96.726562 "/>
<path style=" stroke:none;fill-rule:nonzero;fill:rgb(0%,0%,0%);fill-opacity:1;" d="M 409.046875 74.722656 C 409.074219 82.757812 409.160156 89.4375 409.214844 89.574219 C 409.269531 89.742188 410.289062 90.015625 411.476562 90.210938 C 416.496094 91.039062 425.738281 93.800781 432.550781 96.53125 C 437.046875 98.355469 446.539062 103.929688 448.773438 106.082031 L 449.929688 107.214844 L 449.929688 96.035156 L 470.289062 96.144531 C 487.308594 96.253906 490.925781 96.339844 492.414062 96.699219 C 493.40625 96.917969 495.089844 97.304688 496.136719 97.527344 C 498.648438 98.078125 504.71875 100.175781 507.171875 101.335938 C 515.808594 105.363281 523.339844 111.933594 529.019531 120.355469 C 531.945312 124.660156 535.007812 131.894531 536.359375 137.605469 C 537.160156 140.863281 537.847656 146.605469 538.125 151.960938 C 538.425781 158.363281 536.550781 169.101562 533.929688 175.699219 C 529.515625 186.824219 521.214844 196.292969 510.730469 202.144531 C 505.132812 205.265625 500.414062 206.921875 492.605469 208.523438 L 487.78125 209.515625 L 460.800781 209.515625 C 443.476562 209.515625 432.964844 209.40625 431.449219 209.238281 C 427.199219 208.6875 423.476562 207.582031 419.863281 205.789062 C 411.144531 201.398438 406.042969 195.382812 402.621094 185.363281 C 401.433594 181.9375 400.9375 179.261719 400.523438 174.625 C 399.972656 167.917969 401.214844 158.335938 403.449219 152.238281 C 404 150.71875 404.46875 149.285156 404.496094 149.0625 C 404.550781 148.703125 402.070312 148.648438 383.808594 148.566406 L 363.0625 148.511719 L 362.8125 149.53125 C 360.46875 159.304688 360.25 161.070312 360.082031 171.199219 C 359.945312 178.957031 360 180.007812 360.550781 183.484375 C 361.515625 189.695312 363.835938 198.941406 365.101562 201.703125 C 365.324219 202.171875 365.515625 202.640625 365.515625 202.753906 C 365.515625 203.332031 367.339844 206.976562 369.542969 210.867188 C 374.398438 219.371094 381.460938 226.878906 390.207031 232.839844 C 392.691406 234.523438 399.808594 238.195312 403.449219 239.660156 C 409.1875 241.976562 419.117188 244.546875 424.746094 245.152344 C 427.640625 245.457031 490.425781 245.566406 493.765625 245.261719 C 505.875 244.160156 516.800781 241.234375 528.136719 236.015625 C 534.925781 232.894531 544 227.097656 549.601562 222.296875 C 551.53125 220.613281 558.042969 213.878906 560.414062 211.0625 C 563.75 207.085938 569.765625 198.03125 570.925781 195.273438 C 571.171875 194.691406 571.667969 193.503906 572.054688 192.675781 C 575.421875 185.363281 577.296875 179.207031 579.28125 168.9375 C 581.019531 159.9375 580.910156 144.976562 579.0625 135.398438 C 578.785156 133.933594 577.242188 127.695312 576.304688 124.21875 C 575.226562 120.160156 571.863281 112.074219 569.683594 108.207031 C 568.964844 106.910156 567.808594 104.867188 567.144531 103.652344 C 565.40625 100.453125 562.316406 96.394531 557.378906 90.84375 C 555.144531 88.359375 549.269531 82.8125 547.035156 81.074219 C 540.386719 75.9375 530.839844 70.5 523.308594 67.546875 C 515.199219 64.371094 506.042969 62.109375 497.378906 61.144531 C 489.214844 60.261719 485.433594 60.175781 447.308594 60.175781 L 408.964844 60.175781 Z M 409.046875 74.722656 "/>
<path style=" stroke:none;fill-rule:nonzero;fill:rgb(0%,0%,0%);fill-opacity:1;" d="M 361.875 100.78125 C 339.089844 100.894531 327.808594 101.03125 326.484375 101.253906 C 316.800781 102.796875 307.394531 105.777344 299.695312 109.726562 C 290.371094 114.53125 281.019531 121.984375 275.890625 128.773438 C 269.820312 136.75 267.394531 141.195312 264 150.332031 C 258.316406 165.597656 258.8125 185.335938 265.242188 201.179688 C 267.75 207.417969 270.730469 212.496094 275.144531 218.210938 C 280.632812 225.25 289.433594 232.730469 297.875 237.507812 C 309.601562 244.160156 325.019531 247.914062 340.414062 247.914062 C 351.089844 247.914062 360.882812 246.476562 369.242188 243.691406 C 373.40625 242.308594 379.308594 239.824219 379.308594 239.464844 C 379.28125 239.300781 378.042969 238.25 376.496094 237.121094 C 373.433594 234.828125 367.308594 228.671875 364.605469 225.140625 C 361.957031 221.660156 361.765625 221.414062 360.109375 218.625 C 357.101562 213.601562 356.746094 212.964844 356.277344 211.777344 C 355.808594 210.648438 355.78125 210.621094 354.785156 210.785156 C 354.234375 210.894531 353.351562 211.117188 352.828125 211.308594 C 351.917969 211.640625 350.648438 211.917969 346.925781 212.550781 C 344.773438 212.910156 337.019531 212.910156 334.097656 212.550781 C 327.585938 211.722656 322.097656 209.625 317.074219 206.011719 C 311.613281 202.089844 308.109375 197.921875 304.9375 191.65625 C 302.289062 186.382812 301.1875 181.054688 301.132812 173.355469 C 301.101562 169.019531 301.1875 168.164062 301.875 164.960938 C 303.667969 156.765625 306.484375 151.410156 311.808594 145.972656 C 316.109375 141.609375 320.277344 139.207031 326.898438 137.277344 C 332.277344 135.703125 330.953125 135.757812 363.421875 135.621094 C 393.710938 135.480469 394.566406 135.507812 399.722656 136.476562 C 402.042969 136.917969 406.648438 138.574219 409.378906 139.953125 C 413.132812 141.859375 418.289062 146.632812 420.828125 150.609375 C 422.34375 152.980469 424.21875 157.039062 424.964844 159.605469 C 425.792969 162.367188 426.757812 170.402344 426.757812 174.457031 C 426.757812 177.082031 426.398438 180.613281 425.683594 185.085938 C 425.542969 185.996094 424.855469 188.425781 424.164062 190.523438 C 423.476562 192.59375 422.898438 194.332031 422.898438 194.417969 C 422.898438 194.636719 426.371094 195.90625 428.632812 196.542969 C 430.539062 197.066406 431.339844 197.09375 447.640625 197.039062 L 464.660156 196.957031 L 465.296875 193.917969 C 467.53125 183.015625 468.136719 176.613281 467.613281 168.714844 C 467.007812 159.109375 466.015625 154.308594 462.925781 145.472656 C 461.101562 140.257812 457.957031 134.210938 454.675781 129.628906 C 447.585938 119.773438 437.242188 111.546875 426.070312 106.882812 C 418.980469 103.929688 412.21875 102.136719 404.136719 101.058594 C 400.800781 100.617188 399.007812 100.589844 361.875 100.78125 Z M 361.875 100.78125 "/>
<path style=" stroke:none;fill-rule:nonzero;fill:rgb(0%,0%,0%);fill-opacity:1;" d="M 660.550781 101.058594 C 651.394531 102.300781 645.214844 103.957031 637.792969 107.132812 C 633.460938 108.980469 632.304688 109.589844 628.550781 112.101562 C 623.503906 115.441406 618.484375 119.773438 614.785156 123.941406 C 602.648438 137.691406 596.992188 152.679688 596.277344 173.214844 C 596.027344 179.839844 596.523438 185.003906 598.125 192.402344 C 599.75 199.992188 603.863281 210.34375 607.171875 215.203125 C 611.78125 221.9375 618.070312 228.785156 623.476562 232.867188 C 634.757812 241.398438 649.019531 246.558594 665.046875 247.914062 C 670.015625 248.328125 681.820312 248.078125 685.65625 247.5 C 692.164062 246.503906 698.097656 245.042969 701.515625 243.605469 C 702.8125 243.054688 704.25 242.476562 704.691406 242.28125 C 707.667969 241.09375 714.621094 237.203125 717.515625 235.105469 C 722.125 231.710938 729.65625 224.699219 731.226562 222.324219 C 731.640625 221.6875 731.613281 221.605469 731.007812 220.945312 C 730.648438 220.558594 729.738281 219.785156 728.964844 219.230469 C 728.21875 218.679688 726.484375 217.300781 725.132812 216.140625 C 723.75 215.007812 722.015625 213.574219 721.214844 212.964844 C 720.441406 212.359375 718.925781 211.117188 717.875 210.207031 C 716.828125 209.292969 714.867188 207.667969 713.542969 206.617188 C 712.191406 205.539062 710.261719 203.96875 709.214844 203.054688 L 707.28125 201.457031 L 705.296875 203.195312 C 704.191406 204.160156 703.253906 205.015625 703.171875 205.097656 C 703.089844 205.183594 702.539062 205.625 701.929688 206.066406 C 701.324219 206.507812 700.46875 207.195312 700 207.609375 C 697.875 209.515625 693.628906 212.027344 690.34375 213.324219 C 683.890625 215.890625 675.808594 216.914062 668.773438 216.03125 C 661.628906 215.148438 656.304688 213.324219 651.089844 209.957031 C 646.925781 207.308594 641.351562 200.710938 639.253906 196.042969 C 638.152344 193.589844 636.386719 188.261719 636.550781 187.984375 C 636.632812 187.847656 651.226562 187.734375 673.1875 187.734375 C 693.242188 187.734375 715.890625 187.734375 723.503906 187.734375 L 737.324219 187.707031 L 737.574219 185.003906 C 738.097656 178.984375 737.683594 168.300781 736.660156 161.207031 C 735.835938 155.4375 733.242188 144.730469 732.441406 143.679688 C 732.304688 143.542969 731.945312 142.660156 731.613281 141.746094 C 730.207031 137.910156 725.957031 130.347656 722.839844 126.125 C 719.394531 121.457031 712.414062 114.917969 707.0625 111.328125 C 704.25 109.449219 699.308594 106.964844 695.117188 105.335938 C 691.613281 103.957031 684.386719 102.109375 680 101.445312 C 676.550781 100.921875 663.476562 100.644531 660.550781 101.058594 Z M 673.929688 132.363281 C 678.539062 133.328125 682.261719 134.957031 685.378906 137.332031 C 690.234375 141.058594 694.042969 146.246094 696.082031 151.988281 C 697.019531 154.609375 698.125 158.777344 698.34375 160.574219 L 698.539062 162.035156 L 667.640625 162.035156 C 650.621094 162.035156 636.660156 161.953125 636.605469 161.816406 C 636.523438 161.707031 636.882812 159.992188 637.351562 158.035156 C 639.449219 149.667969 643.695312 142.960938 650.070312 138.046875 C 653.460938 135.425781 660.191406 132.609375 664.136719 132.140625 C 666.484375 131.835938 672.136719 131.976562 673.929688 132.363281 Z M 673.929688 132.363281 "/>
<path style=" stroke:none;fill-rule:nonzero;fill:rgb(0%,0%,0%);fill-opacity:1;" d="M 758.621094 146.910156 C 758.648438 195.988281 758.757812 200.046875 760.277344 208.273438 C 760.578125 209.929688 760.910156 211.667969 760.992188 212.136719 C 761.074219 212.578125 761.351562 213.574219 761.65625 214.347656 C 761.929688 215.089844 762.425781 216.554688 762.757812 217.574219 C 764.191406 222.074219 768.359375 228.839844 772.386719 233.28125 C 774.484375 235.601562 778.757812 238.96875 781.847656 240.792969 C 787.226562 243.964844 792.9375 246.0625 799.585938 247.25 C 803.035156 247.886719 813.460938 247.96875 816.277344 247.386719 C 817.269531 247.167969 819.308594 246.753906 820.800781 246.449219 C 824.164062 245.789062 826.484375 244.960938 830.757812 242.945312 C 836.855469 240.046875 841.929688 235.988281 846.566406 230.273438 C 847.722656 228.839844 848.964844 227.320312 849.296875 226.933594 L 849.902344 226.214844 L 849.902344 235.710938 C 849.929688 240.929688 849.957031 245.234375 849.984375 245.289062 C 850.152344 245.429688 867.808594 245.539062 878.839844 245.457031 L 890.207031 245.402344 L 890.207031 104.066406 L 849.601562 104.066406 L 849.765625 143.542969 C 849.984375 186.246094 849.957031 187.183594 848.550781 193.035156 C 847.613281 196.902344 846.371094 199.578125 844.164062 202.558594 C 842.042969 205.429688 839.53125 207.472656 836.054688 209.183594 C 832.578125 210.894531 831.007812 211.363281 827.28125 211.835938 C 818.289062 212.992188 809.296875 209.40625 804.691406 202.835938 C 803.007812 200.433594 801.046875 196.015625 800.136719 192.539062 C 799.449219 189.972656 799.394531 189.199219 799.144531 180.945312 C 799.035156 176.085938 798.925781 158.808594 798.925781 142.574219 C 798.925781 126.316406 798.925781 111.023438 798.898438 108.539062 L 798.898438 104.066406 L 758.621094 104.066406 Z M 758.621094 146.910156 "/>
</g>
</svg>
